<svg xmlns="http://www.w3.org/2000/svg" viewBox="0 0 900 640" fill="none">
<defs><linearGradient id="bg" x1="0" y1="0" x2="900" y2="640"><stop stop-color="#e9e7e0"/><stop offset="1" stop-color="#f5f3ef"/></linearGradient><linearGradient id="body" x1="300" y1="143" x2="574" y2="506"><stop stop-color="#434849"/><stop offset="1" stop-color="#222627"/></linearGradient><filter id="s" x="203" y="431" width="507" height="136"><feGaussianBlur stdDeviation="16"/></filter></defs><path fill="url(#bg)" d="M0 0h900v640H0z"/><path d="M0 495c244-43 551-46 900 3v142H0V495Z" fill="#e1dfd8"/><ellipse cx="452" cy="498" rx="220" ry="31" fill="#151718" opacity=".17" filter="url(#s)"/><g transform="rotate(-4 450 325)"><path d="m317 182 237-8c18-1 34 13 35 31l12 231c1 18-13 34-31 35l-238 9c-18 0-33-14-34-32l-11-232c-1-18 12-33 30-34Z" fill="url(#body)" stroke="#626767" stroke-width="3"/><path d="m320 156 219-8c13 0 24 9 26 22l2 20-265 9-1-19c0-13 8-23 19-24Z" fill="#202425" stroke="#656a69" stroke-width="3"/><path d="M335 199h203M338 212h202" stroke="#777d7c" stroke-opacity=".45" stroke-width="2"/><rect x="348" y="244" width="174" height="137" rx="2" fill="#1b2021" stroke="#59605e" stroke-width="2"/><path d="M363 259h144v108H363z" fill="#29302f"/><path d="M375 274h120v79H375z" fill="#1b2423"/><path d="M387 285h96M387 296h96M387 307h67" stroke="#526360" stroke-width="3"/><text x="359" y="412" fill="#dce0da" font-family="Arial,sans-serif" font-size="13" letter-spacing="2">TRAILRADIO 4</text><path d="M382 446h105" stroke="#68706d" stroke-width="3"/><circle cx="362" cy="447" r="5" fill="#6f947d"/><path d="m547 209 10 211" stroke="#7c8380" stroke-opacity=".45" stroke-width="2"/><path d="M316 125 304 93c-2-6 3-12 9-12h10l13 43" stroke="#383e3e" stroke-width="8"/><circle cx="568" cy="233" r="8" fill="#a5743a"/><circle cx="570" cy="260" r="8" fill="#3f4845"/></g><path d="M120 550h660" stroke="#ceccc5"/><text x="120" y="575" fill="#777a77" font-family="monospace" font-size="11" letter-spacing="2">PRODUCT STUDY  /  TR4</text></svg>
